<?xml version="1.0" standalone="no"?>
<!DOCTYPE svg PUBLIC "-//W3C//DTD SVG 20010904//EN"
 "http://www.w3.org/TR/2001/REC-SVG-20010904/DTD/svg10.dtd">
<svg version="1.0" xmlns="http://www.w3.org/2000/svg"
 width="204.000000pt" height="192.000000pt" viewBox="0 0 204.000000 192.000000"
 preserveAspectRatio="xMidYMid meet">

<g transform="translate(0.000000,192.000000) scale(0.100000,-0.100000)"
fill="#000000" stroke="none">
<path d="M50 1878 c-17 -23 -34 -53 -38 -67 -4 -14 -7 -404 -7 -867 l0 -841
30 -49 31 -49 954 0 954 0 31 49 30 49 0 841 c0 463 -3 853 -7 867 -4 14 -21
44 -38 67 l-30 42 -940 0 -940 0 -30 -42z m514 -215 c47 -32 86 -101 86 -150
0 -110 -89 -189 -202 -181 -191 14 -229 266 -53 350 54 25 115 19 169 -19z
m992 -457 c64 -30 129 -88 155 -138 43 -84 49 -144 49 -510 l0 -348 -154 0
-155 0 -3 308 c-3 284 -5 310 -23 347 -11 22 -35 50 -54 62 -72 48 -192 17
-234 -61 -21 -39 -22 -55 -27 -346 l-5 -305 -150 0 -150 0 0 495 0 495 153 3
152 3 0 -59 0 -58 48 44 c76 72 129 92 247 92 84 0 108 -4 151 -24z m-936
-496 l0 -500 -155 0 -155 0 0 500 0 500 155 0 155 0 0 -500z"/>
</g>
</svg>
